:SAMPLES-PER-SECOND 30
:FULLY-SPECIFIED
:DEGREES
293
root  -68.483 40.7626 0.387957 2.06328 10.5546 4.73824
RightUpLeg  0.888581 -15.92 -12.9141
RightLeg  9.22031 -19.4238 1.62068
RightFoot  -8.45726 -0.251288 7.68
RightToes  -1.74624e-010 0 -3.6325e-017
Spine  8.59785 1.9073 11.4986
Spine1  5.12986 4.41337 -8.12808
HEad  -16.301 3.33161 -14.4741
LeftShoulder1  -0.295919 4.30217 -30.942
LeftArm  -3.24925 13.9344 -28.552
LeftForeArm  22.0902 -13.5278 -6.35095
LeftHand  0.0591457 9.76868 2.82624
RightShoulder  -0.680604 -5.50959 27.2526
RightArm  19.6193 5.67466 45.3331
RightForeArm  3.72326 19.5257 4.97235
RightHand  -0.253774 4.72523 -3.2106
LeftUpLeg  -16.6648 2.67564 -1.39985
LeftLeg  6.6311 2.33298 -0.245972
LeftFoot  0.47321 0.380072 -3.70252
LeftToes  2.27646e-009 -8.13696e-011 -1.44715e-011
294
root  -68.1972 40.7526 0.584963 2.54819 13.1848 4.36735
RightUpLeg  1.74439 -15.8768 -12.8899
RightLeg  8.56918 -21.8922 1.73129
RightFoot  -7.97938 -0.287472 7.93243
RightToes  -1.74624e-010 0 -3.6325e-017
Spine  7.34472 2.272 11.0218
Spine1  5.89803 4.64911 -7.79109
HEad  -16.1557 2.85071 -13.9615
LeftShoulder1  -0.302618 4.30534 -31.609
LeftArm  -4.78304 15.7171 -28.4089
LeftForeArm  22.3563 -12.569 -6.23422
LeftHand  0.0367506 8.95904 2.64795
RightShoulder  -0.666053 -5.4839 26.9507
RightArm  19.1275 7.23974 47.1797
RightForeArm  3.45832 22.3393 4.7315
RightHand  -0.260768 5.30048 -3.13065
LeftUpLeg  -16.3367 4.17654 0.00818254
LeftLeg  5.19243 7.24596 -0.394598
LeftFoot  1.22802 0.276695 -2.58632
LeftToes  2.27646e-009 -8.13696e-011 -1.44715e-011
295
root  -67.8928 40.7194 0.800466 2.43411 14.9318 3.77069
RightUpLeg  2.93027 -15.4353 -12.5737
RightLeg  7.90673 -23.8296 1.60958
RightFoot  -7.58576 -0.325848 8.34719
RightToes  -1.74624e-010 0 -3.6325e-017
Spine  7.85585 2.63078 10.7668
Spine1  5.115 5.07256 -8.01817
HEad  -15.8788 2.90232 -13.3467
LeftShoulder1  -0.371282 4.47803 -31.9805
LeftArm  -5.64756 17.6559 -28.7368
LeftForeArm  23.367 -11.5065 -6.22783
LeftHand  0.0271843 9.36543 2.15644
RightShoulder  -0.667679 -5.48028 27.097
RightArm  18.5557 8.89103 48.9733
RightForeArm  4.38878 24.9856 5.10589
RightHand  -0.319844 5.60435 -3.68868
LeftUpLeg  -15.2758 6.25491 1.74904
LeftLeg  3.98188 14.06 -0.977406
LeftFoot  1.97899 0.069429 -0.693646
LeftToes  2.27646e-009 -8.13696e-011 -1.44715e-011
296
root  -67.3816 40.6541 1.09688 2.59323 17.298 3.41021
RightUpLeg  4.58295 -15.6807 -13.1
RightLeg  6.8194 -25.573 2.21308
RightFoot  -7.37151 -0.370715 9.22705
RightToes  -1.74624e-010 0 -3.6325e-017
Spine  7.0336 2.70644 10.8166
Spine1  5.41134 5.26249 -8.63613
HEad  -15.9865 2.59448 -12.6885
LeftShoulder1  -0.40416 4.56122 -32.0867
LeftArm  -6.29358 19.6627 -29.8145
LeftForeArm  24.9083 -10.4579 -6.22257
LeftHand  -0.0246522 9.05437 0.762866
RightShoulder  -0.712259 -5.59971 27.313
RightArm  18.5703 10.8235 50.6934
RightForeArm  6.79514 27.494 5.56748
RightHand  -0.223423 5.58205 -2.68207
LeftUpLeg  -14.3666 7.34504 2.64481
LeftLeg  3.29232 21.2403 -1.36796
LeftFoot  2.5153 -0.21281 1.61701
LeftToes  2.27646e-009 -8.13696e-011 -1.44715e-011
297
root  -66.7999 40.5717 1.42488 2.46348 19.0139 3.2417
RightUpLeg  6.33895 -15.7808 -13.8455
RightLeg  6.05137 -26.7959 2.41238
RightFoot  -7.1393 -0.421772 10.1462
RightToes  -1.74624e-010 0 -3.6325e-017
Spine  6.87005 2.8655 10.9425
Spine1  5.37485 5.75218 -9.96167
HEad  -16.0256 2.18035 -12.1359
LeftShoulder1  -0.409243 4.57653 -32.0018
LeftArm  -7.23961 21.8043 -31.2406
LeftForeArm  26.8807 -9.6835 -5.96603
LeftHand  -0.0469776 9.38797 0.117549
RightShoulder  -0.783772 -5.75771 28.1529
RightArm  18.9508 12.734 52.0504
RightForeArm  6.92082 29.7555 6.10048
RightHand  -0.282644 6.10091 -3.18241
LeftUpLeg  -12.9763 7.86899 2.98268
LeftLeg  3.28952 28.7135 -1.02634
LeftFoot  3.28382 -0.390725 2.89867
LeftToes  2.27646e-009 -8.13696e-011 -1.44715e-011
298
root  -66.0731 40.4435 1.80446 2.27452 21.1168 3.12169
RightUpLeg  8.52929 -16.0364 -14.9525
RightLeg  5.24545 -28.1421 2.77618
RightFoot  -6.92773 -0.486811 11.3679
RightToes  -1.74624e-010 0 -3.6325e-017
Spine  6.24657 3.07429 10.9702
Spine1  5.82323 6.20863 -10.9208
HEad  -16.0113 1.6294 -11.5396
LeftShoulder1  -0.335866 4.39088 -31.7393
LeftArm  -8.16357 23.6088 -33.2167
LeftForeArm  29.508 -8.6891 -5.75826
LeftHand  -0.0617681 9.15148 -0.383202
RightShoulder  -0.827978 -5.87365 28.3303
RightArm  18.4799 13.9334 53.1046
RightForeArm  8.48777 32.0561 6.58775
RightHand  -0.30657 6.27756 -3.37949
LeftUpLeg  -12.0008 8.31156 2.74721
LeftLeg  4.76291 31.9287 -0.237416
LeftFoot  4.04643 -0.335202 2.29937
LeftToes  2.27646e-009 -8.13696e-011 -1.44715e-011
299
root  -65.2968 40.324 2.26263 2.6212 23.2833 3.59471
RightUpLeg  10.5986 -16.2492 -16.4429
RightLeg  4.34436 -29.593 2.99953
RightFoot  -6.5234 -0.584026 12.7641
RightToes  -1.74624e-010 0 -3.6325e-017
Spine  5.12005 3.35456 10.0284
Spine1  6.41811 6.64084 -11.6815
HEad  -16.1222 1.48392 -10.8661
LeftShoulder1  -0.362771 4.45438 -32.0064
LeftArm  -7.95008 24.8845 -34.1061
LeftForeArm  31.8838 -8.35513 -5.89633
LeftHand  -0.107705 8.72 -1.9203
RightShoulder  -0.868333 -5.96923 28.6297
RightArm  17.7366 14.5368 53.9448
RightForeArm  9.28937 34.0338 7.06217
RightHand  -0.217121 6.30863 -2.48475
LeftUpLeg  -11.4362 8.96008 1.97555
LeftLeg  5.42159 32.1561 -1.09511
LeftFoot  5.39324 -0.435624 2.74924
LeftToes  2.27646e-009 -8.13696e-011 -1.44715e-011
300
root  -64.4723 40.2125 2.70527 3.22253 26.4025 5.01972
RightUpLeg  13.0079 -16.8543 -18.9088
RightLeg  3.95553 -31.6197 2.95272
RightFoot  -5.869 -0.700638 13.748
RightToes  -1.74624e-010 0 -3.6325e-017
Spine  4.75962 3.31506 7.80811
Spine1  6.2901 6.52017 -11.7715
HEad  -16.1168 0.750176 -10.2632
LeftShoulder1  -0.442306 4.64401 -32.6621
LeftArm  -7.72192 25.267 -34.3674
LeftForeArm  34.1476 -8.06445 -6.05313
LeftHand  -0.162399 9.30832 -3.16653
RightShoulder  -0.865446 -5.95983 28.6418
RightArm  16.7671 14.1943 54.4568
RightForeArm  9.87911 35.7199 7.49049
RightHand  -0.350469 6.50004 -3.76347
LeftUpLeg  -11.6814 8.63247 -0.469377
LeftLeg  7.64592 29.0694 -0.574439
LeftFoot  4.26304 -0.666324 4.67229
LeftToes  2.27646e-009 -8.13696e-011 -1.44715e-011
301
root  -63.6434 40.0932 3.14349 3.46335 29.5906 6.44124
RightUpLeg  15.3251 -17.8625 -21.5935
RightLeg  5.2591 -32.4181 2.04492
RightFoot  -5.11713 -0.75981 13.3056
RightToes  -1.74624e-010 0 -3.6325e-017
Spine  5.17472 3.37828 6.41897
Spine1  5.83181 6.70855 -12.5511
HEad  -15.7929 -0.366765 -9.38773
LeftShoulder1  -0.432432 4.60794 -33.024
LeftArm  -6.94909 24.5213 -34.2285
LeftForeArm  36.1935 -7.74921 -6.47587
LeftHand  -0.183768 9.05611 -4.02032
RightShoulder  -0.782835 -5.73027 28.5325
RightArm  15.3917 13.0567 54.7631
RightForeArm  10.6835 36.5519 7.67785
RightHand  -0.355059 6.92986 -3.68967
LeftUpLeg  -11.2864 9.06776 -2.94566
LeftLeg  9.99924 25.3084 0.230047
LeftFoot  2.43284 -0.66779 5.39723
LeftToes  2.27646e-009 -8.13696e-011 -1.44715e-011
302
root  -62.7727 40.0556 3.55565 3.59265 32.0104 7.49164
RightUpLeg  16.2991 -21.1843 -24.7952
RightLeg  9.50262 -27.8325 -0.645373
RightFoot  -3.79549 -0.675845 9.92688
RightToes  -1.74624e-010 0 -3.6325e-017
Spine  5.1864 3.70504 6.49304
Spine1  6.04273 7.45954 -14.0571
HEad  -14.9251 -1.51769 -9.83243
LeftShoulder1  -0.440519 4.62194 -33.2333
LeftArm  -6.84301 22.8005 -34.481
LeftForeArm  37.1778 -7.35954 -6.63428
LeftHand  -0.199345 9.18652 -4.32791
RightShoulder  -0.800194 -5.77823 28.5631
RightArm  15.7778 12.572 55.1443
RightForeArm  10.3975 35.9428 7.52389
RightHand  -0.44993 7.07161 -4.54084
LeftUpLeg  -9.82642 9.23619 -4.6244
LeftLeg  10.5967 22.8994 -0.0871772
LeftFoot  0.565223 -0.615013 5.86475
LeftToes  2.27646e-009 -8.13696e-011 -1.44715e-011
303
root  -61.9541 40.0379 3.88834 3.64665 34.2773 8.08092
RightUpLeg  16.0446 -26.7774 -27.7738
RightLeg  15.1857 -17.9963 -3.67451
RightFoot  -2.82092 -0.530562 6.83466
RightToes  -1.74624e-010 0 -3.6325e-017
Spine  5.26274 3.78893 6.63743
Spine1  6.03853 7.72631 -14.917
HEad  -13.7476 -1.82317 -11.2094
LeftShoulder1  -0.520877 4.80107 -34.0061
LeftArm  -6.68805 20.9655 -34.4717
LeftForeArm  36.6955 -7.60148 -6.77859
LeftHand  -0.167351 8.83185 -3.80064
RightShoulder  -0.749072 -5.65124 28.2255
RightArm  18.5803 13.0391 55.8264
RightForeArm  9.84303 33.4601 6.88066
RightHand  -0.49482 6.86629 -5.01195
LeftUpLeg  -8.42693 8.91984 -5.74441
LeftLeg  10.8988 21.1741 -0.426453
LeftFoot  -1.02395 -0.570785 6.37192
LeftToes  2.27646e-009 -8.13696e-011 -1.44715e-011
